<mxfile host="app.diagrams.net" agent="Mozilla/5.0 (Windows NT 10.0; Win64; x64) AppleWebKit/537.36 (KHTML, like Gecko) Chrome/136.0.0.0 Safari/537.36" version="27.0.6">
  <diagram name="第 1 页" id="GvJR7VOXR4qqhAL0eQvn">
    <mxGraphModel dx="766" dy="620" grid="1" gridSize="10" guides="1" tooltips="1" connect="1" arrows="1" fold="1" page="1" pageScale="1" pageWidth="827" pageHeight="1169" math="0" shadow="0">
      <root>
        <mxCell id="0" />
        <mxCell id="1" parent="0" />
        <mxCell id="7wuHAryeXYasHfljJOPp-5" style="rounded=0;orthogonalLoop=1;jettySize=auto;html=1;exitX=0;exitY=0.5;exitDx=0;exitDy=0;endArrow=none;startFill=0;" edge="1" parent="1" source="7wuHAryeXYasHfljJOPp-1" target="7wuHAryeXYasHfljJOPp-2">
          <mxGeometry relative="1" as="geometry" />
        </mxCell>
        <mxCell id="7wuHAryeXYasHfljJOPp-6" style="rounded=0;orthogonalLoop=1;jettySize=auto;html=1;exitX=0.75;exitY=0;exitDx=0;exitDy=0;entryX=0.5;entryY=1;entryDx=0;entryDy=0;endArrow=none;startFill=0;" edge="1" parent="1" source="7wuHAryeXYasHfljJOPp-1" target="7wuHAryeXYasHfljJOPp-4">
          <mxGeometry relative="1" as="geometry" />
        </mxCell>
        <mxCell id="7wuHAryeXYasHfljJOPp-7" style="rounded=0;orthogonalLoop=1;jettySize=auto;html=1;exitX=0.25;exitY=0;exitDx=0;exitDy=0;entryX=0.5;entryY=1;entryDx=0;entryDy=0;endArrow=none;startFill=0;" edge="1" parent="1" source="7wuHAryeXYasHfljJOPp-1" target="7wuHAryeXYasHfljJOPp-3">
          <mxGeometry relative="1" as="geometry" />
        </mxCell>
        <mxCell id="7wuHAryeXYasHfljJOPp-1" value="教师" style="rounded=0;whiteSpace=wrap;html=1;" vertex="1" parent="1">
          <mxGeometry x="260" y="280" width="120" height="60" as="geometry" />
        </mxCell>
        <mxCell id="7wuHAryeXYasHfljJOPp-2" value="工资号" style="ellipse;whiteSpace=wrap;html=1;fontStyle=4" vertex="1" parent="1">
          <mxGeometry x="100" y="270" width="120" height="80" as="geometry" />
        </mxCell>
        <mxCell id="7wuHAryeXYasHfljJOPp-3" value="教师姓名" style="ellipse;whiteSpace=wrap;html=1;" vertex="1" parent="1">
          <mxGeometry x="170" y="170" width="120" height="80" as="geometry" />
        </mxCell>
        <mxCell id="7wuHAryeXYasHfljJOPp-4" value="职称" style="ellipse;whiteSpace=wrap;html=1;" vertex="1" parent="1">
          <mxGeometry x="320" y="170" width="120" height="80" as="geometry" />
        </mxCell>
      </root>
    </mxGraphModel>
  </diagram>
</mxfile>
